HIERARCHY
ROOT hip
{
	OFFSET 0.000000 0.000000 0.000000 
	CHANNELS 6 Xposition Yposition Zposition Xrotation Zrotation Yrotation
	JOINT abdomen
	{
		OFFSET 0.000000 3.402643 0.000000 
		CHANNELS 3 Xrotation Zrotation Yrotation
		JOINT chest
		{
			OFFSET 0.000000 8.438565 -0.680529 
			CHANNELS 3 Xrotation Zrotation Yrotation
			JOINT neck
			{
				OFFSET 0.000000 10.207942 -0.272212 
				CHANNELS 3 Xrotation Zrotation Yrotation
				JOINT head
				{
					OFFSET 0.000000 3.130431 0.000000 
					CHANNELS 3 Xrotation Zrotation Yrotation
					End Site
					{
						OFFSET 0.000000 3.130435 0.000000 
					}
				}
			}
			JOINT lCollar
			{
				OFFSET 3.470700 6.669187 -0.816635 
				CHANNELS 3 Yrotation Zrotation Xrotation
				JOINT lShldr
				{
					OFFSET 3.198488 0.000000 0.000000 
					CHANNELS 3 Zrotation Yrotation Xrotation
					JOINT lForeArm
					{
						OFFSET 10.139888 0.000000 0.000000 
						CHANNELS 3 Yrotation Zrotation Xrotation
						JOINT lHand
						{
							OFFSET 8.370511 0.000000 0.000000 
							CHANNELS 3 Zrotation Yrotation Xrotation
							End Site
							{
								OFFSET 4.083176 0.000000 0.000000 
							}
						}
					}
				}
			}
			JOINT rCollar
			{
				OFFSET -3.470700 6.669187 -0.816635 
				CHANNELS 3 Yrotation Zrotation Xrotation
				JOINT rShldr
				{
					OFFSET -3.198488 0.000000 0.000000 
					CHANNELS 3 Zrotation Yrotation Xrotation
					JOINT rForeArm
					{
						OFFSET -10.139888 0.000000 0.000000 
						CHANNELS 3 Yrotation Zrotation Xrotation
						JOINT rHand
						{
							OFFSET -8.370511 0.000000 0.000000 
							CHANNELS 3 Zrotation Yrotation Xrotation
							End Site
							{
								OFFSET -4.083176 0.000000 0.000000 
							}
						}
					}
				}
			}
		}
	}
	JOINT lThigh
	{
		OFFSET 5.308129 -1.633274 1.361059 
		CHANNELS 3 Xrotation Zrotation Yrotation
		JOINT lShin
		{
			OFFSET -2.041588 -20.007561 0.000000 
			CHANNELS 3 Xrotation Zrotation Yrotation
			JOINT lFoot
			{
				OFFSET 0.000000 -19.190928 -1.224953 
				CHANNELS 3 Xrotation Yrotation Zrotation
				End Site
				{
					OFFSET 0.000000 -2.449906 4.627600 
				}
			}
		}
	}
	JOINT rThigh
	{
		OFFSET -5.308129 -1.633274 1.361059 
		CHANNELS 3 Xrotation Zrotation Yrotation
		JOINT rShin
		{
			OFFSET 2.041588 -20.007561 0.000000 
			CHANNELS 3 Xrotation Zrotation Yrotation
			JOINT rFoot
			{
				OFFSET 0.000000 -19.190928 -1.224953 
				CHANNELS 3 Xrotation Yrotation Zrotation
				End Site
				{
					OFFSET 0.000000 -2.449906 4.627600 
				}
			}
		}
	}
}
MOTION
Frames: 12
Frame Time: 0.033333
1.166159 50.302635 4.566197 0.048833 0.791015 -0.292160 0.000000 0.000000 0.000000 -3.642715 -0.497041 0.158595 5.195658 -0.279995 0.036236 5.761707 -0.165811 0.066825 0.141809 9.503218 -2.774248 -4.707340 -2.017653 -11.682451 1.241735 -8.675924 16.186111 1.006283 -2.585921 -3.459485 -0.033235 -9.900085 -2.786884 2.324072 -11.473801 -15.047004 -0.690224 6.946814 24.000257 -3.019179 8.137409 -3.638492 10.402851 6.344893 6.865426 -1.698482 -2.915787 8.657143 -6.981285 0.397803 -6.491735 9.763432 -10.135353 -10.426191 0.332481 3.177848 -10.423052 -6.778367 -0.543492 9.049668 
1.165530 50.298107 4.545786 0.029299 0.712891 -0.282717 0.000000 0.000000 0.000000 -3.642676 -0.419074 0.163397 5.146720 -0.290499 0.040165 6.035148 -0.146337 0.045627 1.110041 9.192165 -2.844265 -4.281259 -3.248574 -12.024132 1.411897 -8.910205 16.698763 1.218560 -2.533944 -3.471900 -0.171876 -9.981538 -2.801334 2.460874 -11.425082 -14.995025 -0.680333 6.953862 24.038374 -3.030226 8.156294 -3.639054 10.396877 6.424599 6.927391 -1.648795 -2.914636 8.624636 -6.980587 0.395587 -6.492752 9.739934 -10.053251 -10.373663 0.371795 3.188303 -10.420550 -6.803826 -0.540519 9.019715 
1.167291 50.303146 4.520743 0.078131 0.722656 -0.340688 0.000000 0.000000 0.000000 -3.711051 -0.448277 0.185324 5.127270 -0.300420 0.079271 6.269530 -0.068303 0.051612 1.044109 9.223930 -2.897290 -4.427351 -3.131911 -12.022579 1.412866 -8.858889 16.735544 1.113907 -2.422879 -3.466051 -0.087086 -9.917794 -2.857468 2.373374 -11.532355 -15.042078 -0.680914 6.914180 24.046883 -2.879360 8.106944 -3.619460 10.348890 6.424984 6.918032 -1.718863 -2.946072 8.737961 -6.900090 0.386975 -6.473693 9.654188 -10.075679 -10.305447 0.390486 3.140613 -10.331404 -6.782884 -0.563800 9.062164 
1.168425 50.311451 4.490679 0.029299 0.751953 -0.380347 0.000000 0.000000 0.000000 -3.711089 -0.516493 0.209280 5.186240 -0.194385 -0.004832 6.445296 -0.224450 0.047521 1.037303 9.380685 -2.895816 -4.661995 -3.113764 -12.103062 1.408440 -8.752129 17.170618 1.035277 -2.417850 -3.461372 -0.006252 -9.784913 -2.847024 2.194814 -11.640755 -14.944066 -0.690596 6.929979 24.107134 -2.922303 8.162991 -3.632860 10.358542 6.375929 6.900209 -1.729550 -2.937329 8.777413 -6.871597 0.383665 -6.453336 9.647044 -10.106558 -10.339463 0.390586 3.130311 -10.380099 -6.740744 -0.553129 9.044450 
1.160874 50.310444 4.456700 0.029299 0.722656 -0.399898 0.000000 0.000000 0.000000 -3.818552 -0.574893 0.350869 5.393288 -0.006188 -0.068784 6.406207 -0.361062 -0.025209 0.762048 9.735008 -2.964010 -4.940216 -2.976742 -11.865042 1.408377 -8.797724 17.221537 1.014588 -2.399533 -3.459790 0.154552 -9.706956 -2.936854 2.172346 -11.935237 -14.730295 -0.661388 6.909399 24.112766 -2.786790 8.200738 -3.615191 10.290379 6.405770 6.895860 -1.629642 -2.934546 8.731386 -6.906563 0.370448 -6.470564 9.575621 -10.064752 -10.292089 0.420214 3.130040 -10.406895 -6.711707 -0.544125 9.015663 
1.169557 50.314594 4.432439 -0.078131 0.722656 -0.459970 0.000000 0.000000 0.000000 -3.769728 -0.584670 0.399849 5.471896 -0.001812 -0.085551 6.572225 -0.361101 -0.094615 0.807424 9.820543 -2.915457 -5.064251 -3.035148 -11.744277 1.303752 -8.851044 16.670908 1.025837 -2.261885 -3.460948 0.198548 -9.757990 -2.895963 2.190942 -12.004093 -14.653648 -0.661305 6.911971 24.073790 -2.834001 8.168463 -3.618016 10.357498 6.395546 6.933175 -1.633071 -2.937571 8.898061 -6.840154 0.384542 -6.462978 9.645004 -10.095265 -10.347889 0.429687 3.170603 -10.260783 -6.690005 -0.528157 8.990225 
1.204794 50.305157 4.408328 -0.087898 0.761718 -0.430856 0.000000 0.000000 0.000000 -3.799040 -0.604138 0.372145 5.559648 -0.010683 -0.114450 6.464801 -0.361076 -0.103703 0.841373 9.936236 -2.954133 -5.246584 -3.103614 -11.626453 1.326029 -8.890112 16.978346 1.182481 -2.262190 -3.470297 0.152686 -9.804605 -2.920022 2.128186 -11.927421 -14.452837 -0.670078 6.998773 24.243689 -2.979936 8.139847 -3.636240 10.268396 6.296930 6.789963 -1.513954 -2.848366 8.966030 -6.878935 0.383887 -6.474681 9.643442 -10.220558 -10.526386 0.380637 3.297767 -10.245960 -6.589707 -0.518850 8.949171 
1.200263 50.301380 4.380001 -0.244163 0.781243 -0.423251 0.000000 0.000000 0.000000 -3.672121 -0.662699 0.335496 5.568813 -0.081428 -0.182904 6.445304 -0.165898 -0.169529 0.869336 9.877383 -2.842558 -5.111531 -3.162030 -11.697219 1.356960 -8.900429 17.129614 1.045344 -2.260706 -3.462118 0.082195 -9.867829 -2.808025 2.219833 -11.789196 -14.653650 -0.680100 6.977352 24.127005 -3.038183 8.126444 -3.639617 10.383108 6.286157 6.846422 -1.472986 -2.885379 8.954266 -6.872156 0.390058 -6.461111 9.780936 -10.269695 -10.656427 0.342278 3.366110 -10.209783 -6.523755 -0.516839 8.905662 
1.187176 50.306293 4.341996 -0.332064 0.800768 -0.385500 0.000000 0.000000 0.000000 -3.642859 -0.711450 0.299197 5.734444 -0.168899 -0.252204 6.152343 -0.048783 -0.242052 0.654068 9.800319 -2.799358 -5.091263 -2.907399 -11.590295 1.307596 -8.863377 17.081854 1.078146 -2.317424 -3.463880 0.085316 -10.121613 -2.782420 2.479445 -11.777537 -14.861744 -0.671750 6.886913 24.308510 -2.955440 8.219645 -3.634545 10.404975 6.306581 6.859076 -1.415337 -2.866738 8.842578 -6.867045 0.382863 -6.485620 9.827867 -10.269219 -10.647893 0.351425 3.366253 -10.209694 -6.505973 -0.505397 8.867626 
1.174338 50.305412 4.314173 -0.341834 0.849594 -0.376162 0.000000 0.000000 0.000000 -3.701498 -0.760130 0.312841 5.812527 -0.229053 -0.268501 6.074208 -0.165854 -0.227049 0.628042 9.645063 -2.853503 -5.022927 -2.926558 -11.576912 1.315639 -8.893175 16.928205 1.218252 -2.367642 -3.472059 0.085500 -10.327452 -2.838756 2.586142 -11.807325 -14.759990 -0.661718 6.898463 24.278423 -2.957845 8.102077 -3.633738 10.327950 6.278339 6.766322 -1.307424 -2.816435 8.824575 -6.901795 0.383155 -6.528902 9.820827 -10.300169 -10.672029 0.351312 3.357047 -10.160783 -6.476133 -0.508864 8.865312 
1.167166 50.300125 4.288500 -0.410202 0.859353 -0.387011 0.000000 0.000000 0.000000 -3.672250 -0.818628 0.296674 5.802471 -0.304150 -0.241268 6.093749 0.048781 -0.236513 0.769002 9.550495 -2.831182 -5.004530 -3.083298 -11.672642 1.282902 -8.893645 16.611300 1.102092 -2.227924 -3.465241 0.049959 -10.393631 -2.811691 2.625929 -11.719074 -14.800427 -0.661127 6.928274 24.123123 -3.023431 8.049082 -3.637685 10.416235 6.288240 6.796413 -1.396393 -2.847020 8.752905 -6.824198 0.384428 -6.505498 9.872750 -10.332388 -10.727592 0.345152 3.396734 -10.112438 -6.449590 -0.506003 8.833933 
1.153451 50.290180 4.262237 -0.498100 0.839812 -0.270972 0.000000 0.000000 0.000000 -3.584405 -0.877187 0.269783 5.685237 -0.292624 -0.284874 6.259761 0.107332 -0.238768 0.658564 9.536897 -2.750703 -5.005574 -3.073884 -11.731281 1.333781 -8.885333 16.754789 1.260508 -2.257460 -3.474962 0.107474 -10.209516 -2.721260 2.430355 -11.885134 -14.850242 -0.691136 6.896840 24.164667 -3.217768 8.007636 -3.658689 10.573344 6.336850 6.861531 -1.661026 -2.839284 8.545452 -6.628817 0.375142 -6.506036 9.938952 -10.301616 -10.764429 0.409708 3.435505 -10.157630 -6.485285 -0.502090 8.804554 
